<svg width="285" height="133" viewBox="0 0 285 133" fill="none" xmlns="http://www.w3.org/2000/svg">
<rect width="285" height="133" fill="transperent"/>
<path d="M86.476 31.881C89.9378 31.881 92.7616 33.0219 94.9479 35.3038C97.1343 37.5857 98.2274 40.5522 98.2274 44.2031V118.683C98.2274 122.152 97.2252 124.89 95.2212 126.898C93.2173 128.906 90.5753 129.91 87.2959 129.91C84.1074 129.91 81.4659 128.906 79.3706 126.898C77.3666 124.89 76.3644 122.152 76.3644 118.683V78.431L60.787 107.182C59.2382 110.103 57.5985 112.202 55.8678 113.48C54.1371 114.667 52.0875 115.26 49.7188 115.26C47.3502 115.26 45.3006 114.667 43.5699 113.48C41.8392 112.202 40.1994 110.103 38.6507 107.182L23.2099 79.2525V118.683C23.2099 122.06 22.1623 124.798 20.0671 126.898C18.063 128.906 15.4212 129.91 12.1418 129.91C8.95341 129.91 6.31162 128.906 4.21644 126.898C2.21232 124.89 1.21027 122.152 1.21027 118.683V44.2031C1.21027 40.5522 2.30342 37.5857 4.48973 35.3038C6.76711 33.0219 9.63663 31.881 13.0983 31.881C15.5579 31.881 17.7897 32.6112 19.7938 34.0716C21.7979 35.4407 23.4832 37.4488 24.8497 40.0957L49.9921 87.4672L74.9979 40.0957C77.8218 34.6192 81.6478 31.881 86.476 31.881Z" fill="white"/>
<path d="M197.266 110.195C199.635 112.476 200.819 115.123 200.819 118.135C200.819 121.147 199.68 123.795 197.403 126.076C195.126 128.358 192.438 129.499 189.341 129.499C185.971 129.499 182.873 128.039 180.049 125.118L141.106 85.1397V117.451C141.106 121.284 139.967 124.342 137.69 126.624C135.412 128.815 132.315 129.91 128.398 129.91C124.572 129.91 121.52 128.815 119.243 126.624C117.056 124.342 115.963 121.284 115.963 117.451V44.2031C115.963 40.4607 117.056 37.4944 119.243 35.3038C121.52 33.0219 124.572 31.881 128.398 31.881C132.315 31.881 135.412 33.0219 137.69 35.3038C139.967 37.4944 141.106 40.4607 141.106 44.2031V74.3237L179.503 35.5776C181.871 33.1132 184.559 31.881 187.565 31.881C190.571 31.881 193.213 33.0219 195.49 35.3038C197.767 37.4944 198.906 40.0957 198.906 43.1078C198.906 46.1198 197.585 48.9038 194.943 51.4594L166.931 78.9787L197.266 110.195Z" fill="white"/>
<path d="M222.989 129.088C219.254 129.088 216.384 128.084 214.38 126.076C212.376 124.068 211.374 121.193 211.374 117.451V44.2028C211.374 40.4605 212.376 37.5854 214.38 35.5774C216.384 33.5693 219.254 32.5653 222.989 32.5653H270.268C274.185 32.5653 277.145 33.3868 279.149 35.0297C281.153 36.6727 282.156 39.0458 282.156 42.1492C282.156 48.7209 278.193 52.0068 270.268 52.0068H235.833V70.353H267.535C275.46 70.353 279.423 73.5931 279.423 80.0737C279.423 83.1769 278.42 85.5502 276.416 87.1931C274.412 88.8361 271.452 89.6576 267.535 89.6576H235.833V109.647H270.268C278.193 109.647 282.156 112.933 282.156 119.504C282.156 122.608 281.153 124.981 279.149 126.624C277.145 128.267 274.185 129.088 270.268 129.088H222.989Z" fill="white"/>
<path d="M97.6028 43.0294C97.6028 36.5481 92.359 31.2941 85.8904 31.2941C79.4219 31.2941 74.1781 36.5481 74.1781 43.0294V117.353C74.1781 123.834 79.4219 129.088 85.8904 129.088C92.359 129.088 97.6028 123.834 97.6028 117.353V43.0294Z" fill="#FFF175"/>
<path d="M85.8904 23.4706C92.359 23.4706 97.6028 18.2165 97.6028 11.7353C97.6028 5.25407 92.359 0 85.8904 0C79.4219 0 74.1781 5.25407 74.1781 11.7353C74.1781 18.2165 79.4219 23.4706 85.8904 23.4706Z" fill="#FFF175"/>
</svg>
